<?xml version="1.0" encoding="utf-8"?>
<!-- Generator: Adobe Illustrator 16.0.0, SVG Export Plug-In . SVG Version: 6.00 Build 0)  -->
<!DOCTYPE svg PUBLIC "-//W3C//DTD SVG 1.1//EN" "http://www.w3.org/Graphics/SVG/1.1/DTD/svg11.dtd">
<svg version="1.1" id="ie" xmlns="http://www.w3.org/2000/svg" xmlns:xlink="http://www.w3.org/1999/xlink" x="0px" y="0px"
	 width="855px" height="345px" viewBox="167.775 248.445 855 345" enable-background="new 167.775 248.445 855 345"
	 xml:space="preserve">
<g>
	<g>
		<g>
			<path d="M531.608,520.835h13.247c12.228,0,20.266,7.303,20.266,19.926c0,12.682-8.038,20.041-20.266,20.041h-13.247V520.835z
				 M544.46,555.933c9,0,14.889-5.32,14.889-15.172c0-9.793-5.944-15.059-14.889-15.059h-7.246v30.23H544.46L544.46,555.933z"/>
			<path d="M573.218,532.158h5.32v4.98c0,1.188-0.112,2.15-0.112,2.15h0.112c1.303-4.189,4.643-7.473,9.059-7.473
				c0.734,0,1.415,0.113,1.415,0.113v5.436c0,0-0.736-0.17-1.585-0.17c-3.511,0-6.736,2.49-8.039,6.734
				c-0.511,1.643-0.68,3.396-0.68,5.152V560.8h-5.49V532.158L573.218,532.158z"/>
			<path d="M595.238,520.835h5.548v5.604h-5.548V520.835z M595.296,532.158h5.49v28.645h-5.49V532.158z"/>
			<path d="M606.333,532.158h5.831l6.964,19.359c0.564,1.584,0.904,3.906,0.962,3.906h0.112c0.058,0,0.453-2.322,1.021-3.906
				l6.963-19.359h5.774l-10.588,28.645h-6.34L606.333,532.158z"/>
			<path d="M639.45,520.835h5.548v5.604h-5.548V520.835z M639.508,532.158h5.491v28.645h-5.491V532.158z"/>
			<path d="M654.451,532.158h5.321v3.793c0,1.131-0.113,2.094-0.113,2.094h0.113c1.132-2.49,4.528-6.566,10.756-6.566
				c6.736,0,9.85,3.68,9.85,10.982v18.342h-5.49v-17.098c0-4.02-0.85-7.189-5.436-7.189c-4.357,0-7.868,2.889-9.058,7.021
				c-0.339,1.133-0.452,2.434-0.452,3.85v13.416h-5.491V532.158L654.451,532.158z"/>
			<path d="M699.852,567.935c4.98,0,9.058-2.209,9.058-8.039v-2.094c0-0.906,0.058-1.813,0.058-1.813h-0.113
				c-1.698,2.83-4.359,4.473-8.491,4.473c-7.981,0-12.794-6.396-12.794-14.662c0-8.209,4.585-14.322,12.511-14.322
				c6.906,0,9.001,4.246,9.001,4.246h0.113c0,0-0.057-0.396-0.057-0.906v-2.66h5.265v27.457c0,9.453-7.188,13.074-14.436,13.074
				c-3.453,0-7.021-0.961-9.794-2.377l1.812-4.303C691.982,566.009,695.55,567.935,699.852,567.935z M709.022,545.857
				c0-7.475-3.623-9.623-8.096-9.623c-4.981,0-7.813,3.623-7.813,9.451c0,5.945,3.17,10.021,8.321,10.021
				C705.399,555.707,709.022,553.33,709.022,545.857z"/>
			<path d="M740.384,520.835h5.604v39.967h-5.604V520.835z"/>
			<path d="M756.573,532.158h5.321v3.793c0,1.131-0.113,2.094-0.113,2.094h0.113c1.132-2.49,4.528-6.566,10.756-6.566
				c6.736,0,9.85,3.68,9.85,10.982v18.342h-5.49v-17.098c0-4.02-0.85-7.189-5.436-7.189c-4.357,0-7.868,2.889-9.058,7.021
				c-0.339,1.133-0.452,2.434-0.452,3.85v13.416h-5.491V532.158L756.573,532.158z"/>
			<path d="M791.558,532.158h5.321v3.793c0,1.131-0.113,2.094-0.113,2.094h0.113c1.132-2.49,4.527-6.566,10.756-6.566
				c6.735,0,9.85,3.68,9.85,10.982v18.342h-5.491v-17.098c0-4.02-0.849-7.189-5.435-7.189c-4.358,0-7.868,2.889-9.059,7.021
				c-0.339,1.133-0.451,2.434-0.451,3.85v13.416h-5.491V532.158L791.558,532.158z"/>
			<path d="M839.902,531.478c8.549,0,15.455,6.283,15.455,14.945c0,8.717-6.906,15.059-15.455,15.059
				c-8.548,0-15.454-6.342-15.454-15.059C824.448,537.761,831.354,531.478,839.902,531.478z M839.902,556.726
				c5.436,0,9.852-4.303,9.852-10.303c0-5.943-4.416-10.189-9.852-10.189c-5.378,0-9.85,4.244-9.85,10.189
				C830.053,552.423,834.524,556.726,839.902,556.726z"/>
			<path d="M858.81,532.158h5.831l6.963,19.359c0.565,1.584,0.905,3.906,0.962,3.906h0.113c0.057,0,0.453-2.322,1.02-3.906
				l6.963-19.359h5.774l-10.587,28.645h-6.34L858.81,532.158z"/>
			<path d="M906.928,542.914h1.246v-0.51c0-4.699-2.661-6.283-6.284-6.283c-4.415,0-7.981,2.771-7.981,2.771l-2.265-4.02
				c0,0,4.133-3.396,10.699-3.396c7.245,0,11.321,3.965,11.321,11.209V560.8h-5.096v-2.717c0-1.303,0.113-2.264,0.113-2.264h-0.113
				c0,0-2.32,5.66-9.17,5.66c-4.926,0-9.737-3.002-9.737-8.719C889.662,543.31,902.116,542.914,906.928,542.914z M900.589,557.066
				c4.642,0,7.643-4.869,7.643-9.115v-0.904h-1.416c-4.132,0-11.604,0.281-11.604,5.434
				C895.211,554.8,897.021,557.066,900.589,557.066z"/>
			<path d="M923.741,536.968h-3.735v-4.414h3.905v-8.266h5.321v8.266h6.906v4.414h-6.906v12.738c0,5.717,4.021,6.453,6.114,6.453
				c0.792,0,1.302-0.113,1.302-0.113v4.869c0,0-0.793,0.113-1.925,0.113c-3.68,0-10.982-1.135-10.982-10.699V536.968z"/>
			<path d="M943.611,520.835h5.548v5.604h-5.548V520.835z M943.669,532.158h5.49v28.645h-5.49V532.158z"/>
			<path d="M971.972,531.478c8.549,0,15.455,6.283,15.455,14.945c0,8.717-6.906,15.059-15.455,15.059
				c-8.548,0-15.454-6.342-15.454-15.059C956.518,537.761,963.425,531.478,971.972,531.478z M971.972,556.726
				c5.435,0,9.851-4.303,9.851-10.303c0-5.943-4.416-10.189-9.851-10.189c-5.378,0-9.851,4.244-9.851,10.189
				C962.122,552.423,966.594,556.726,971.972,556.726z"/>
			<path d="M994.786,532.158h5.321v3.793c0,1.131-0.113,2.094-0.113,2.094h0.113c1.132-2.49,4.528-6.566,10.756-6.566
				c6.736,0,9.851,3.68,9.851,10.982v18.342h-5.491v-17.098c0-4.02-0.85-7.189-5.436-7.189c-4.357,0-7.868,2.889-9.058,7.021
				c-0.339,1.133-0.452,2.434-0.452,3.85v13.416h-5.491V532.158L994.786,532.158z"/>
		</g>
	</g>
	<g>
		<g>
			<path fill="#00338D" d="M531.504,444.302h10.815v38.15c0,7.965,5.198,12.494,13.164,12.494c7.965,0,13.247-4.529,13.247-12.578
				v-38.066h10.816v38.15c0,13.332-9.644,22.387-23.98,22.387c-14.421,0-24.063-9.055-24.063-22.387V444.302z"/>
			<path fill="#00338D" d="M595.06,444.302h10.815l22.556,34.377c2.265,3.439,4.947,9.225,4.947,9.225h0.168
				c0,0-0.587-5.701-0.587-9.225v-34.377h10.731v59.531H632.96l-22.556-34.293c-2.265-3.438-4.946-9.223-4.946-9.223h-0.169
				c0,0,0.587,5.699,0.587,9.223v34.293H595.06V444.302z"/>
			<path fill="#00338D" d="M660.044,444.302h10.815v59.531h-10.815V444.302z"/>
			<path fill="#00338D" d="M679.579,444.302h11.655l13.08,38.822c1.174,3.438,2.18,8.719,2.264,8.719h0.168
				c0.083,0,1.091-5.281,2.265-8.719l13.164-38.822h11.569l-21.716,59.531h-10.731L679.579,444.302z"/>
			<path fill="#00338D" d="M742.468,444.302h35.636v9.309h-24.819v15.596h20.04v9.307h-20.04v16.016h26.16v9.307h-36.977V444.302
				L742.468,444.302z"/>
			<path fill="#00338D" d="M791.938,444.302h19.201c6.456,0,9.391,0.504,11.99,1.678c5.952,2.684,9.727,8.385,9.727,16.268
				c0,7.127-3.773,13.75-10.063,16.266v0.168c0,0,0.839,0.838,2.013,2.936l12.242,22.219h-12.074l-11.822-22.219h-10.396v22.219
				h-10.816L791.938,444.302L791.938,444.302z M812.48,472.224c5.785,0,9.391-3.438,9.391-9.391c0-5.703-2.432-9.225-10.899-9.225
				h-8.217v18.613h9.726V472.224z"/>
			<path fill="#00338D" d="M849.711,488.574c0,0,6.456,6.289,14.841,6.289c4.527,0,8.637-2.35,8.637-7.211
				c0-10.648-28.089-8.805-28.089-27.082c0-9.896,8.552-17.273,19.955-17.273c11.739,0,17.776,6.373,17.776,6.373l-4.696,8.803
				c0,0-5.701-5.197-13.163-5.197c-5.031,0-8.972,2.936-8.972,7.127c0,10.564,28.005,7.965,28.005,27
				c0,9.475-7.211,17.438-19.621,17.438c-13.247,0-20.542-8.133-20.542-8.133L849.711,488.574z"/>
			<path fill="#00338D" d="M896.077,444.302h10.816v59.531h-10.816V444.302z"/>
			<path fill="#00338D" d="M935.57,453.609h-19.537v-9.307h49.891v9.307h-19.536v50.225H935.57V453.609z"/>
			<path fill="#00338D" d="M989.904,478.931l-19.788-34.629h12.241l9.308,17.523c1.929,3.689,3.521,8.051,3.605,7.967h0.167
				c0,0,1.677-4.277,3.604-7.967l9.225-17.523h12.241l-19.788,34.629v24.902h-10.815V478.931L989.904,478.931z"/>
		</g>
	</g>
	<g id="XMLID_2_">
		<g id="XMLID_28_">
			<path id="XMLID_9_" fill="#0097DC" d="M211.826,252.945c23.429,0,42.521,19.02,42.521,42.491s-19.091,42.549-42.521,42.549
				c-23.487,0-42.52-19.078-42.52-42.549C169.307,271.965,188.339,252.945,211.826,252.945z"/>
		</g>
		<g id="XMLID_3_">
			<rect id="XMLID_7_" x="177.791" y="363.496" fill="#00338D" width="68.031" height="221.103"/>
			<path id="XMLID_4_" fill="#00338D" d="M488.969,474.748l-0.001-1.209C488.735,409.453,445.884,357.59,375.9,357.59l0,0
				c-69.984,0-112.835,51.863-113.068,115.949l-0.001,1.209c0,70.385,54.491,115.793,122.605,115.793
				c35.42,0,71.292-15.893,93.089-43.594l-46.354-33.992c-12.229,14.338-27.664,25.82-49.915,25.82
				c-26.337,0-45.863-16.803-51.313-42.686h156.229C488.332,489.261,488.969,482.152,488.969,474.748z M377.666,444.984h-43.705
				c4.179-17.234,18.201-32.848,43.705-32.848s39.526,15.613,43.705,32.848H377.666z"/>
		</g>
	</g>
</g>
</svg>
